# xmcd
# 
# Track frame offsets:
#     150
#     20465
#     35590
#     50433
#     61680
#     74150
#     88083
#     102615
#     116408
#     134563
#     151600
#     166540
#     188300
#     201658
#     213758
# 
# Disc length: 3030
# 
# Revision: 3
# Processed by: cddbd v1.5.2PL0 Copyright (c) Steve Scherf et al.
# Submitted via: fre:ac v1.1beta1pre4
# 
DISCID=cb0bd40f
DTITLE=Eric Burdon and The Animals - Gold
DYEAR=1997
DGENRE=
TTITLE0=House Of The Raising Sun
TTITLE1=San Fransisco Nights
TTITLE2=We've Gotta Get Out Of This Palce
TTITLE3=Don't Let Me Be Misunderstood
TTITLE4=I'm Crying
TTITLE5=Boom, Boom
TTITLE6=It's My Life
TTITLE7=Good Times
TTITLE8=See See Rider
TTITLE9=Inside - Looking Out
TTITLE10=Don't Bring Me Down
TTITLE11=Ring Of Fire
TTITLE12=I Put A Spell On You
TTITLE13=Help Me Girl
TTITLE14=When I Was Young
EXTD=
EXTT0=
EXTT1=
EXTT2=
EXTT3=
EXTT4=
EXTT5=
EXTT6=
EXTT7=
EXTT8=
EXTT9=
EXTT10=
EXTT11=
EXTT12=
EXTT13=
EXTT14=
PLAYORDER=
